<svg xmlns="http://www.w3.org/2000/svg" viewBox="0 0 24.992 24.892"><g stroke-width=".265"><path d="M14.917 10.313h-3.74l-1.08 4.292h3.766zM12.989 3l-1.337 5.333h3.753L16.755 3h2.056l-1.324 5.333h4.01c.66 0 .66 1.98 0 1.98h-4.511l-1.054 4.292h4.087c.655 0 .655 1.966 0 1.966h-4.588l-1.337 5.321h-2.056l1.324-5.32H9.596l-1.324 5.32H6.203l1.337-5.32H3.492c-.656 0-.656-1.967 0-1.967h4.523l1.08-4.292H4.957c-.66 0-.66-1.98 0-1.98h4.64L10.906 3zM-108.063 10.313h-3.74l-1.08 4.292h3.766zM-109.991 3l-1.336 5.333h3.752l1.35-5.333h2.056l-1.324 5.333h4.01c.66 0 .66 1.98 0 1.98h-4.51l-1.055 4.292h4.087c.656 0 .656 1.966 0 1.966h-4.588l-1.337 5.321h-2.056l1.324-5.32h-3.766l-1.323 5.32h-2.07l1.337-5.32h-4.048c-.656 0-.656-1.967 0-1.967h4.524l1.08-4.292h-4.14c-.659 0-.659-1.98 0-1.98h4.64L-112.073 3z" aria-label="#"/></g></svg>
